M48
; DRILL file {KiCad 9.0.7} date 2026-02-16T16:05:34+0530
; FORMAT={-:-/ absolute / metric / decimal}
; #@! TF.CreationDate,2026-02-16T16:05:34+05:30
; #@! TF.GenerationSoftware,Kicad,Pcbnew,9.0.7
; #@! TF.FileFunction,Plated,1,2,PTH
FMAT,2
METRIC
; #@! TA.AperFunction,Plated,PTH,ViaDrill
T1C0.300
; #@! TA.AperFunction,Plated,PTH,ComponentDrill
T2C0.800
; #@! TA.AperFunction,Plated,PTH,ComponentDrill
T3C1.000
; #@! TA.AperFunction,Plated,PTH,ComponentDrill
T4C1.500
%
G90
G05
T1
X152.48Y-63.76
X152.52Y-56.5
X153.18Y-61.74
X153.21Y-53.82
X157.8Y-51.82
X167.293Y-92.36
T2
X138.89Y-74.28
X138.89Y-81.9
X142.48Y-74.29
X142.48Y-81.91
X145.85Y-74.28
X145.85Y-81.9
X149.4Y-74.28
X149.4Y-81.9
T3
X134.732Y-49.03
X134.732Y-51.57
X134.732Y-54.11
X134.732Y-56.65
X134.732Y-59.19
X134.732Y-61.73
X134.732Y-64.27
X149.972Y-49.03
X149.972Y-51.57
X149.972Y-54.11
X149.972Y-56.65
X149.972Y-59.19
X149.972Y-61.73
X149.972Y-64.27
X156.09Y-49.59
X156.09Y-52.13
X156.09Y-54.67
X156.09Y-57.21
T4
X160.143Y-85.42
X160.153Y-66.36
X166.493Y-82.88
X166.503Y-63.82
X179.173Y-66.36
X179.183Y-85.42
X185.523Y-63.82
X185.533Y-82.88
M30
