%TF.GenerationSoftware,KiCad,Pcbnew,9.0.7*%
%TF.CreationDate,2026-02-13T21:46:17+05:30*%
%TF.ProjectId,laya's macropad,6c617961-2773-4206-9d61-63726f706164,rev?*%
%TF.SameCoordinates,Original*%
%TF.FileFunction,Legend,Bot*%
%TF.FilePolarity,Positive*%
%FSLAX46Y46*%
G04 Gerber Fmt 4.6, Leading zero omitted, Abs format (unit mm)*
G04 Created by KiCad (PCBNEW 9.0.7) date 2026-02-13 21:46:17*
%MOMM*%
%LPD*%
G01*
G04 APERTURE LIST*
%ADD10C,0.100000*%
G04 APERTURE END LIST*
D10*
%TO.C,D2*%
X138630000Y-105990000D02*
X139030000Y-106590000D01*
X139030000Y-105990000D02*
X139030000Y-105490000D01*
X139030000Y-106590000D02*
X139430000Y-105990000D01*
X139030000Y-106990000D02*
X139030000Y-106590000D01*
X139430000Y-105990000D02*
X138630000Y-105990000D01*
X139580000Y-106590000D02*
X138480000Y-106590000D01*
%TO.C,D4*%
X146600000Y-97710000D02*
X146600000Y-98510000D01*
X146600000Y-98110000D02*
X146100000Y-98110000D01*
X146600000Y-98510000D02*
X147200000Y-98110000D01*
X147200000Y-97560000D02*
X147200000Y-98660000D01*
X147200000Y-98110000D02*
X146600000Y-97710000D01*
X147600000Y-98110000D02*
X147200000Y-98110000D01*
%TO.C,D1*%
X138290000Y-90120000D02*
X138690000Y-90720000D01*
X138690000Y-90120000D02*
X138690000Y-89620000D01*
X138690000Y-90720000D02*
X139090000Y-90120000D01*
X138690000Y-91120000D02*
X138690000Y-90720000D01*
X139090000Y-90120000D02*
X138290000Y-90120000D01*
X139240000Y-90720000D02*
X138140000Y-90720000D01*
%TO.C,D3*%
X130030000Y-97710000D02*
X130030000Y-98510000D01*
X130030000Y-98110000D02*
X129530000Y-98110000D01*
X130030000Y-98510000D02*
X130630000Y-98110000D01*
X130630000Y-97560000D02*
X130630000Y-98660000D01*
X130630000Y-98110000D02*
X130030000Y-97710000D01*
X131030000Y-98110000D02*
X130630000Y-98110000D01*
%TD*%
M02*
