%TF.GenerationSoftware,KiCad,Pcbnew,9.0.7*%
%TF.CreationDate,2026-02-13T21:46:16+05:30*%
%TF.ProjectId,laya's macropad,6c617961-2773-4206-9d61-63726f706164,rev?*%
%TF.SameCoordinates,Original*%
%TF.FileFunction,Copper,L1,Top*%
%TF.FilePolarity,Positive*%
%FSLAX46Y46*%
G04 Gerber Fmt 4.6, Leading zero omitted, Abs format (unit mm)*
G04 Created by KiCad (PCBNEW 9.0.7) date 2026-02-13 21:46:16*
%MOMM*%
%LPD*%
G01*
G04 APERTURE LIST*
G04 Aperture macros list*
%AMRoundRect*
0 Rectangle with rounded corners*
0 $1 Rounding radius*
0 $2 $3 $4 $5 $6 $7 $8 $9 X,Y pos of 4 corners*
0 Add a 4 corners polygon primitive as box body*
4,1,4,$2,$3,$4,$5,$6,$7,$8,$9,$2,$3,0*
0 Add four circle primitives for the rounded corners*
1,1,$1+$1,$2,$3*
1,1,$1+$1,$4,$5*
1,1,$1+$1,$6,$7*
1,1,$1+$1,$8,$9*
0 Add four rect primitives between the rounded corners*
20,1,$1+$1,$2,$3,$4,$5,0*
20,1,$1+$1,$4,$5,$6,$7,0*
20,1,$1+$1,$6,$7,$8,$9,0*
20,1,$1+$1,$8,$9,$2,$3,0*%
G04 Aperture macros list end*
%TA.AperFunction,ComponentPad*%
%ADD10C,2.500000*%
%TD*%
%TA.AperFunction,SMDPad,CuDef*%
%ADD11RoundRect,0.500000X-0.875000X-0.500000X0.875000X-0.500000X0.875000X0.500000X-0.875000X0.500000X0*%
%TD*%
%TA.AperFunction,ComponentPad*%
%ADD12R,1.600000X1.600000*%
%TD*%
%TA.AperFunction,ComponentPad*%
%ADD13C,1.600000*%
%TD*%
%TA.AperFunction,ComponentPad*%
%ADD14R,1.508000X1.508000*%
%TD*%
%TA.AperFunction,ComponentPad*%
%ADD15C,1.508000*%
%TD*%
%TA.AperFunction,ComponentPad*%
%ADD16O,1.600000X1.600000*%
%TD*%
%TA.AperFunction,ViaPad*%
%ADD17C,0.600000*%
%TD*%
%TA.AperFunction,Conductor*%
%ADD18C,0.200000*%
%TD*%
G04 APERTURE END LIST*
D10*
%TO.P,S4,1,1*%
%TO.N,Net-(U2-PB09_A7_D7_RX)*%
X144490000Y-105140000D03*
%TO.P,S4,2,2*%
%TO.N,Net-(D3-K)*%
X150840000Y-102600000D03*
%TD*%
D11*
%TO.P,U2,1,PA02_A0_D0*%
%TO.N,unconnected-(U2-PA02_A0_D0-Pad1)_1*%
X143147500Y-54740000D03*
D12*
%TO.N,unconnected-(U2-PA02_A0_D0-Pad1)*%
X143592500Y-54740000D03*
D11*
%TO.P,U2,2,PA4_A1_D1*%
%TO.N,unconnected-(U2-PA4_A1_D1-Pad2)_1*%
X143147500Y-57280000D03*
D13*
%TO.N,unconnected-(U2-PA4_A1_D1-Pad2)*%
X143592500Y-57280000D03*
D11*
%TO.P,U2,3,PA10_A2_D2*%
%TO.N,unconnected-(U2-PA10_A2_D2-Pad3)_1*%
X143147500Y-59820000D03*
D13*
%TO.N,unconnected-(U2-PA10_A2_D2-Pad3)*%
X143592500Y-59820000D03*
D11*
%TO.P,U2,4,PA11_A3_D3*%
%TO.N,unconnected-(U2-PA11_A3_D3-Pad4)*%
X143147500Y-62360000D03*
D13*
%TO.N,unconnected-(U2-PA11_A3_D3-Pad4)_1*%
X143592500Y-62360000D03*
D11*
%TO.P,U2,5,PA8_A4_D4_SDA*%
%TO.N,Net-(J1-SDA)*%
X143147500Y-64900000D03*
D13*
X143592500Y-64900000D03*
D11*
%TO.P,U2,6,PA9_A5_D5_SCL*%
%TO.N,Net-(J1-SCL)*%
X143147500Y-67440000D03*
D13*
X143592500Y-67440000D03*
D11*
%TO.P,U2,7,PB08_A6_D6_TX*%
%TO.N,Net-(D4-K)*%
X143147500Y-69980000D03*
D13*
X143592500Y-69980000D03*
%TO.P,U2,8,PB09_A7_D7_RX*%
%TO.N,Net-(U2-PB09_A7_D7_RX)*%
X158832500Y-69980000D03*
D11*
X159312500Y-69980000D03*
D13*
%TO.P,U2,9,PA7_A8_D8_SCK*%
%TO.N,Net-(U2-PA7_A8_D8_SCK)*%
X158832500Y-67440000D03*
D11*
X159312500Y-67440000D03*
D13*
%TO.P,U2,10,PA5_A9_D9_MISO*%
%TO.N,Net-(U2-PA5_A9_D9_MISO)*%
X158832500Y-64900000D03*
D11*
X159312500Y-64900000D03*
D13*
%TO.P,U2,11,PA6_A10_D10_MOSI*%
%TO.N,Net-(U2-PA6_A10_D10_MOSI)*%
X158832500Y-62360000D03*
D11*
X159312500Y-62360000D03*
D13*
%TO.P,U2,12,3V3*%
%TO.N,Net-(J1-VCC)*%
X158832500Y-59820000D03*
D11*
X159312500Y-59820000D03*
D13*
%TO.P,U2,13,GND*%
%TO.N,GND*%
X158832500Y-57280000D03*
D11*
X159312500Y-57280000D03*
D13*
%TO.P,U2,14,5V*%
%TO.N,unconnected-(U2-5V-Pad14)_1*%
X158832500Y-54740000D03*
D11*
%TO.N,unconnected-(U2-5V-Pad14)*%
X159312500Y-54740000D03*
%TD*%
D10*
%TO.P,S2,1,1*%
%TO.N,Net-(U2-PA5_A9_D9_MISO)*%
X144520000Y-86080000D03*
%TO.P,S2,2,2*%
%TO.N,Net-(D1-K)*%
X150870000Y-83540000D03*
%TD*%
%TO.P,S1,1,1*%
%TO.N,Net-(U2-PA6_A10_D10_MOSI)*%
X125450000Y-86100000D03*
%TO.P,S1,2,2*%
%TO.N,Net-(D1-A)*%
X131800000Y-83560000D03*
%TD*%
%TO.P,S3,1,1*%
%TO.N,Net-(U2-PA7_A8_D8_SCK)*%
X125440000Y-105110000D03*
%TO.P,S3,2,2*%
%TO.N,Net-(D2-K)*%
X131790000Y-102570000D03*
%TD*%
D14*
%TO.P,J1,1,GND*%
%TO.N,GND*%
X132290000Y-77770000D03*
D15*
%TO.P,J1,2,VCC*%
%TO.N,Net-(J1-VCC)*%
X129750000Y-77770000D03*
%TO.P,J1,3,SCL*%
%TO.N,Net-(J1-SCL)*%
X127210000Y-77770000D03*
%TO.P,J1,4,SDA*%
%TO.N,Net-(J1-SDA)*%
X124670000Y-77770000D03*
%TD*%
D12*
%TO.P,D2,1,K*%
%TO.N,Net-(D2-K)*%
X139030000Y-110050000D03*
D16*
%TO.P,D2,2,A*%
%TO.N,Net-(D1-K)*%
X139030000Y-102430000D03*
%TD*%
D12*
%TO.P,D4,1,K*%
%TO.N,Net-(D4-K)*%
X150660000Y-98110000D03*
D16*
%TO.P,D4,2,A*%
%TO.N,Net-(D3-K)*%
X143040000Y-98110000D03*
%TD*%
D12*
%TO.P,D1,1,K*%
%TO.N,Net-(D1-K)*%
X138690000Y-94180000D03*
D16*
%TO.P,D1,2,A*%
%TO.N,Net-(D1-A)*%
X138690000Y-86560000D03*
%TD*%
D12*
%TO.P,D3,1,K*%
%TO.N,Net-(D3-K)*%
X134090000Y-98110000D03*
D16*
%TO.P,D3,2,A*%
%TO.N,Net-(D2-K)*%
X126470000Y-98110000D03*
%TD*%
D17*
%TO.N,Net-(U2-PA5_A9_D9_MISO)*%
X155482500Y-69560000D03*
%TD*%
D18*
%TO.N,Net-(D2-K)*%
X127330000Y-98110000D02*
X126470000Y-98110000D01*
X131790000Y-102570000D02*
X127330000Y-98110000D01*
X139030000Y-109810000D02*
X131790000Y-102570000D01*
X139030000Y-110050000D02*
X139030000Y-109810000D01*
%TO.N,Net-(J1-VCC)*%
X146240130Y-71281000D02*
X144868942Y-71281000D01*
X132029058Y-75490942D02*
X140659000Y-75490942D01*
X157701130Y-59820000D02*
X158832500Y-59820000D01*
X144868942Y-71281000D02*
X140659000Y-75490942D01*
X146240130Y-71281000D02*
X157701130Y-59820000D01*
X129750000Y-77770000D02*
X132029058Y-75490942D01*
%TO.N,Net-(J1-SDA)*%
X143592500Y-64900000D02*
X132002500Y-64900000D01*
X124670000Y-72232500D02*
X124670000Y-77770000D01*
X132002500Y-64900000D02*
X124670000Y-72232500D01*
%TO.N,Net-(U2-PA6_A10_D10_MOSI)*%
X137592950Y-80562500D02*
X140630000Y-80562500D01*
X137592950Y-86100000D02*
X137592950Y-80562500D01*
X125450000Y-86100000D02*
X137592950Y-86100000D01*
X140630000Y-80562500D02*
X158832500Y-62360000D01*
%TO.N,Net-(U2-PA5_A9_D9_MISO)*%
X144520000Y-80542500D02*
X155482500Y-69580000D01*
X144520000Y-86080000D02*
X144520000Y-80542500D01*
X155482500Y-69580000D02*
X155482500Y-69560000D01*
%TO.N,Net-(U2-PA7_A8_D8_SCK)*%
X139353054Y-83516000D02*
X139791000Y-83953946D01*
X124190001Y-98832949D02*
X133156950Y-89866000D01*
X125440000Y-105110000D02*
X124190001Y-103860001D01*
X139353054Y-83516000D02*
X155429054Y-67440000D01*
X155429054Y-67440000D02*
X158832500Y-67440000D01*
X133156950Y-89866000D02*
X138540554Y-89866000D01*
X139791000Y-83953946D02*
X139791000Y-88615554D01*
X124190001Y-103860001D02*
X124190001Y-98832949D01*
X139791000Y-88615554D02*
X138540554Y-89866000D01*
%TO.N,Net-(U2-PB09_A7_D7_RX)*%
X144490000Y-105140000D02*
X144490000Y-95784816D01*
X144490000Y-95784816D02*
X158020000Y-82254816D01*
X158020000Y-76717316D02*
X158020000Y-82254816D01*
X158832500Y-75904816D02*
X158832500Y-69980000D01*
X158832500Y-75904816D02*
X158020000Y-76717316D01*
%TD*%
M02*
