%TF.GenerationSoftware,KiCad,Pcbnew,9.0.7*%
%TF.CreationDate,2026-02-13T21:46:17+05:30*%
%TF.ProjectId,laya's macropad,6c617961-2773-4206-9d61-63726f706164,rev?*%
%TF.SameCoordinates,Original*%
%TF.FileFunction,Soldermask,Top*%
%TF.FilePolarity,Negative*%
%FSLAX46Y46*%
G04 Gerber Fmt 4.6, Leading zero omitted, Abs format (unit mm)*
G04 Created by KiCad (PCBNEW 9.0.7) date 2026-02-13 21:46:17*
%MOMM*%
%LPD*%
G01*
G04 APERTURE LIST*
G04 Aperture macros list*
%AMRoundRect*
0 Rectangle with rounded corners*
0 $1 Rounding radius*
0 $2 $3 $4 $5 $6 $7 $8 $9 X,Y pos of 4 corners*
0 Add a 4 corners polygon primitive as box body*
4,1,4,$2,$3,$4,$5,$6,$7,$8,$9,$2,$3,0*
0 Add four circle primitives for the rounded corners*
1,1,$1+$1,$2,$3*
1,1,$1+$1,$4,$5*
1,1,$1+$1,$6,$7*
1,1,$1+$1,$8,$9*
0 Add four rect primitives between the rounded corners*
20,1,$1+$1,$2,$3,$4,$5,0*
20,1,$1+$1,$4,$5,$6,$7,0*
20,1,$1+$1,$6,$7,$8,$9,0*
20,1,$1+$1,$8,$9,$2,$3,0*%
G04 Aperture macros list end*
%ADD10C,1.750000*%
%ADD11C,4.000000*%
%ADD12C,2.500000*%
%ADD13RoundRect,0.500000X-0.875000X-0.500000X0.875000X-0.500000X0.875000X0.500000X-0.875000X0.500000X0*%
%ADD14R,1.600000X1.600000*%
%ADD15C,1.600000*%
%ADD16C,2.404000*%
%ADD17RoundRect,0.102000X0.754000X0.754000X-0.754000X0.754000X-0.754000X-0.754000X0.754000X-0.754000X0*%
%ADD18C,1.712000*%
%ADD19O,1.600000X1.600000*%
G04 APERTURE END LIST*
D10*
%TO.C,S4*%
X143220000Y-107680000D03*
D11*
X148300000Y-107680000D03*
D10*
X153380000Y-107680000D03*
D12*
X144490000Y-105140000D03*
X150840000Y-102600000D03*
%TD*%
D13*
%TO.C,U2*%
X143147500Y-54740000D03*
D14*
X143592500Y-54740000D03*
D13*
X143147500Y-57280000D03*
D15*
X143592500Y-57280000D03*
D13*
X143147500Y-59820000D03*
D15*
X143592500Y-59820000D03*
D13*
X143147500Y-62360000D03*
D15*
X143592500Y-62360000D03*
D13*
X143147500Y-64900000D03*
D15*
X143592500Y-64900000D03*
D13*
X143147500Y-67440000D03*
D15*
X143592500Y-67440000D03*
D13*
X143147500Y-69980000D03*
D15*
X143592500Y-69980000D03*
X158832500Y-69980000D03*
D13*
X159312500Y-69980000D03*
D15*
X158832500Y-67440000D03*
D13*
X159312500Y-67440000D03*
D15*
X158832500Y-64900000D03*
D13*
X159312500Y-64900000D03*
D15*
X158832500Y-62360000D03*
D13*
X159312500Y-62360000D03*
D15*
X158832500Y-59820000D03*
D13*
X159312500Y-59820000D03*
D15*
X158832500Y-57280000D03*
D13*
X159312500Y-57280000D03*
D15*
X158832500Y-54740000D03*
D13*
X159312500Y-54740000D03*
%TD*%
D10*
%TO.C,S2*%
X143250000Y-88620000D03*
D11*
X148330000Y-88620000D03*
D10*
X153410000Y-88620000D03*
D12*
X144520000Y-86080000D03*
X150870000Y-83540000D03*
%TD*%
D10*
%TO.C,S1*%
X124180000Y-88640000D03*
D11*
X129260000Y-88640000D03*
D10*
X134340000Y-88640000D03*
D12*
X125450000Y-86100000D03*
X131800000Y-83560000D03*
%TD*%
D10*
%TO.C,S3*%
X124170000Y-107650000D03*
D11*
X129250000Y-107650000D03*
D10*
X134330000Y-107650000D03*
D12*
X125440000Y-105110000D03*
X131790000Y-102570000D03*
%TD*%
D16*
%TO.C,J1*%
X117975550Y-54270000D03*
X117975550Y-77270000D03*
X138980000Y-54270000D03*
X138980000Y-77270000D03*
D17*
X132290000Y-77770000D03*
D18*
X129750000Y-77770000D03*
X127210000Y-77770000D03*
X124670000Y-77770000D03*
%TD*%
D14*
%TO.C,D2*%
X139030000Y-110050000D03*
D19*
X139030000Y-102430000D03*
%TD*%
D14*
%TO.C,D4*%
X150660000Y-98110000D03*
D19*
X143040000Y-98110000D03*
%TD*%
D14*
%TO.C,D1*%
X138690000Y-94180000D03*
D19*
X138690000Y-86560000D03*
%TD*%
D14*
%TO.C,D3*%
X134090000Y-98110000D03*
D19*
X126470000Y-98110000D03*
%TD*%
M02*
