%TF.GenerationSoftware,KiCad,Pcbnew,9.0.7*%
%TF.CreationDate,2026-02-13T21:46:16+05:30*%
%TF.ProjectId,laya's macropad,6c617961-2773-4206-9d61-63726f706164,rev?*%
%TF.SameCoordinates,Original*%
%TF.FileFunction,Copper,L2,Bot*%
%TF.FilePolarity,Positive*%
%FSLAX46Y46*%
G04 Gerber Fmt 4.6, Leading zero omitted, Abs format (unit mm)*
G04 Created by KiCad (PCBNEW 9.0.7) date 2026-02-13 21:46:16*
%MOMM*%
%LPD*%
G01*
G04 APERTURE LIST*
%TA.AperFunction,ComponentPad*%
%ADD10C,2.500000*%
%TD*%
%TA.AperFunction,ComponentPad*%
%ADD11R,1.600000X1.600000*%
%TD*%
%TA.AperFunction,ComponentPad*%
%ADD12C,1.600000*%
%TD*%
%TA.AperFunction,ComponentPad*%
%ADD13R,1.508000X1.508000*%
%TD*%
%TA.AperFunction,ComponentPad*%
%ADD14C,1.508000*%
%TD*%
%TA.AperFunction,ComponentPad*%
%ADD15O,1.600000X1.600000*%
%TD*%
%TA.AperFunction,ViaPad*%
%ADD16C,0.600000*%
%TD*%
%TA.AperFunction,Conductor*%
%ADD17C,0.200000*%
%TD*%
G04 APERTURE END LIST*
D10*
%TO.P,S4,1,1*%
%TO.N,Net-(U2-PB09_A7_D7_RX)*%
X144490000Y-105140000D03*
%TO.P,S4,2,2*%
%TO.N,Net-(D3-K)*%
X150840000Y-102600000D03*
%TD*%
D11*
%TO.P,U2,1,PA02_A0_D0*%
%TO.N,unconnected-(U2-PA02_A0_D0-Pad1)*%
X143592500Y-54740000D03*
D12*
%TO.P,U2,2,PA4_A1_D1*%
%TO.N,unconnected-(U2-PA4_A1_D1-Pad2)*%
X143592500Y-57280000D03*
%TO.P,U2,3,PA10_A2_D2*%
%TO.N,unconnected-(U2-PA10_A2_D2-Pad3)*%
X143592500Y-59820000D03*
%TO.P,U2,4,PA11_A3_D3*%
%TO.N,unconnected-(U2-PA11_A3_D3-Pad4)_1*%
X143592500Y-62360000D03*
%TO.P,U2,5,PA8_A4_D4_SDA*%
%TO.N,Net-(J1-SDA)*%
X143592500Y-64900000D03*
%TO.P,U2,6,PA9_A5_D5_SCL*%
%TO.N,Net-(J1-SCL)*%
X143592500Y-67440000D03*
%TO.P,U2,7,PB08_A6_D6_TX*%
%TO.N,Net-(D4-K)*%
X143592500Y-69980000D03*
%TO.P,U2,8,PB09_A7_D7_RX*%
%TO.N,Net-(U2-PB09_A7_D7_RX)*%
X158832500Y-69980000D03*
%TO.P,U2,9,PA7_A8_D8_SCK*%
%TO.N,Net-(U2-PA7_A8_D8_SCK)*%
X158832500Y-67440000D03*
%TO.P,U2,10,PA5_A9_D9_MISO*%
%TO.N,Net-(U2-PA5_A9_D9_MISO)*%
X158832500Y-64900000D03*
%TO.P,U2,11,PA6_A10_D10_MOSI*%
%TO.N,Net-(U2-PA6_A10_D10_MOSI)*%
X158832500Y-62360000D03*
%TO.P,U2,12,3V3*%
%TO.N,Net-(J1-VCC)*%
X158832500Y-59820000D03*
%TO.P,U2,13,GND*%
%TO.N,GND*%
X158832500Y-57280000D03*
%TO.P,U2,14,5V*%
%TO.N,unconnected-(U2-5V-Pad14)_1*%
X158832500Y-54740000D03*
%TD*%
D10*
%TO.P,S2,1,1*%
%TO.N,Net-(U2-PA5_A9_D9_MISO)*%
X144520000Y-86080000D03*
%TO.P,S2,2,2*%
%TO.N,Net-(D1-K)*%
X150870000Y-83540000D03*
%TD*%
%TO.P,S1,1,1*%
%TO.N,Net-(U2-PA6_A10_D10_MOSI)*%
X125450000Y-86100000D03*
%TO.P,S1,2,2*%
%TO.N,Net-(D1-A)*%
X131800000Y-83560000D03*
%TD*%
%TO.P,S3,1,1*%
%TO.N,Net-(U2-PA7_A8_D8_SCK)*%
X125440000Y-105110000D03*
%TO.P,S3,2,2*%
%TO.N,Net-(D2-K)*%
X131790000Y-102570000D03*
%TD*%
D13*
%TO.P,J1,1,GND*%
%TO.N,GND*%
X132290000Y-77770000D03*
D14*
%TO.P,J1,2,VCC*%
%TO.N,Net-(J1-VCC)*%
X129750000Y-77770000D03*
%TO.P,J1,3,SCL*%
%TO.N,Net-(J1-SCL)*%
X127210000Y-77770000D03*
%TO.P,J1,4,SDA*%
%TO.N,Net-(J1-SDA)*%
X124670000Y-77770000D03*
%TD*%
D11*
%TO.P,D2,1,K*%
%TO.N,Net-(D2-K)*%
X139030000Y-110050000D03*
D15*
%TO.P,D2,2,A*%
%TO.N,Net-(D1-K)*%
X139030000Y-102430000D03*
%TD*%
D11*
%TO.P,D4,1,K*%
%TO.N,Net-(D4-K)*%
X150660000Y-98110000D03*
D15*
%TO.P,D4,2,A*%
%TO.N,Net-(D3-K)*%
X143040000Y-98110000D03*
%TD*%
D11*
%TO.P,D1,1,K*%
%TO.N,Net-(D1-K)*%
X138690000Y-94180000D03*
D15*
%TO.P,D1,2,A*%
%TO.N,Net-(D1-A)*%
X138690000Y-86560000D03*
%TD*%
D11*
%TO.P,D3,1,K*%
%TO.N,Net-(D3-K)*%
X134090000Y-98110000D03*
D15*
%TO.P,D3,2,A*%
%TO.N,Net-(D2-K)*%
X126470000Y-98110000D03*
%TD*%
D16*
%TO.N,Net-(U2-PA5_A9_D9_MISO)*%
X155482500Y-69560000D03*
%TD*%
D17*
%TO.N,Net-(D1-K)*%
X132989000Y-97009000D02*
X135818000Y-94180000D01*
X152119999Y-98852001D02*
X152119999Y-84789999D01*
X151761000Y-99211000D02*
X152119999Y-98852001D01*
X136208000Y-102430000D02*
X132989000Y-99211000D01*
X149559000Y-99211000D02*
X151761000Y-99211000D01*
X152119999Y-84789999D02*
X150870000Y-83540000D01*
X144528000Y-94180000D02*
X149559000Y-99211000D01*
X132989000Y-99211000D02*
X132989000Y-97009000D01*
X138690000Y-94180000D02*
X144528000Y-94180000D01*
X135818000Y-94180000D02*
X138690000Y-94180000D01*
X139030000Y-102430000D02*
X136208000Y-102430000D01*
%TO.N,Net-(D1-A)*%
X131800000Y-83560000D02*
X135690000Y-83560000D01*
X135690000Y-83560000D02*
X138690000Y-86560000D01*
%TO.N,Net-(D3-K)*%
X150840000Y-102600000D02*
X147530000Y-102600000D01*
X143040000Y-98110000D02*
X134090000Y-98110000D01*
X147530000Y-102600000D02*
X143040000Y-98110000D01*
%TO.N,Net-(D4-K)*%
X146071000Y-86722446D02*
X146071000Y-79621000D01*
X146883500Y-73271000D02*
X146883500Y-78808500D01*
X146883500Y-78808500D02*
X146071000Y-79621000D01*
X150660000Y-98110000D02*
X145666723Y-93116723D01*
X146883500Y-73271000D02*
X143592500Y-69980000D01*
X145666723Y-87126723D02*
X146071000Y-86722446D01*
X145666723Y-93116723D02*
X145666723Y-87126723D01*
%TO.N,GND*%
X135981500Y-68541000D02*
X147571500Y-68541000D01*
X132290000Y-77770000D02*
X135169000Y-74891000D01*
X147571500Y-68541000D02*
X158832500Y-57280000D01*
X135169000Y-74891000D02*
X135169000Y-69353500D01*
X135169000Y-69353500D02*
X135981500Y-68541000D01*
%TO.N,Net-(J1-SCL)*%
X132190000Y-72790000D02*
X127210000Y-77770000D01*
X132190000Y-67440000D02*
X143592500Y-67440000D01*
X132190000Y-67440000D02*
X132190000Y-72790000D01*
%TO.N,Net-(U2-PA5_A9_D9_MISO)*%
X155482500Y-69560000D02*
X155482500Y-68250000D01*
X155482500Y-68250000D02*
X158832500Y-64900000D01*
%TD*%
M02*
