M48
; DRILL file {KiCad 9.0.7} date 2026-02-13T21:46:23+0530
; FORMAT={-:-/ absolute / metric / decimal}
; #@! TF.CreationDate,2026-02-13T21:46:23+05:30
; #@! TF.GenerationSoftware,Kicad,Pcbnew,9.0.7
; #@! TF.FileFunction,Plated,1,2,PTH
FMAT,2
METRIC
; #@! TA.AperFunction,Plated,PTH,ViaDrill
T1C0.300
; #@! TA.AperFunction,Plated,PTH,ComponentDrill
T2C0.800
; #@! TA.AperFunction,Plated,PTH,ComponentDrill
T3C1.000
; #@! TA.AperFunction,Plated,PTH,ComponentDrill
T4C1.500
%
G90
G05
T1
X155.482Y-69.56
T2
X126.47Y-98.11
X134.09Y-98.11
X138.69Y-86.56
X138.69Y-94.18
X139.03Y-102.43
X139.03Y-110.05
X143.04Y-98.11
X150.66Y-98.11
T3
X124.67Y-77.77
X127.21Y-77.77
X129.75Y-77.77
X132.29Y-77.77
X143.593Y-54.74
X143.593Y-57.28
X143.593Y-59.82
X143.593Y-62.36
X143.593Y-64.9
X143.593Y-67.44
X143.593Y-69.98
X158.832Y-54.74
X158.832Y-57.28
X158.832Y-59.82
X158.832Y-62.36
X158.832Y-64.9
X158.832Y-67.44
X158.832Y-69.98
T4
X125.44Y-105.11
X125.45Y-86.1
X131.79Y-102.57
X131.8Y-83.56
X144.49Y-105.14
X144.52Y-86.08
X150.84Y-102.6
X150.87Y-83.54
M30
