%TF.GenerationSoftware,KiCad,Pcbnew,9.0.7*%
%TF.CreationDate,2026-02-16T16:03:45+05:30*%
%TF.ProjectId,laya's macropad,6c617961-2773-4206-9d61-63726f706164,rev?*%
%TF.SameCoordinates,Original*%
%TF.FileFunction,Copper,L1,Top*%
%TF.FilePolarity,Positive*%
%FSLAX46Y46*%
G04 Gerber Fmt 4.6, Leading zero omitted, Abs format (unit mm)*
G04 Created by KiCad (PCBNEW 9.0.7) date 2026-02-16 16:03:45*
%MOMM*%
%LPD*%
G01*
G04 APERTURE LIST*
G04 Aperture macros list*
%AMRoundRect*
0 Rectangle with rounded corners*
0 $1 Rounding radius*
0 $2 $3 $4 $5 $6 $7 $8 $9 X,Y pos of 4 corners*
0 Add a 4 corners polygon primitive as box body*
4,1,4,$2,$3,$4,$5,$6,$7,$8,$9,$2,$3,0*
0 Add four circle primitives for the rounded corners*
1,1,$1+$1,$2,$3*
1,1,$1+$1,$4,$5*
1,1,$1+$1,$6,$7*
1,1,$1+$1,$8,$9*
0 Add four rect primitives between the rounded corners*
20,1,$1+$1,$2,$3,$4,$5,0*
20,1,$1+$1,$4,$5,$6,$7,0*
20,1,$1+$1,$6,$7,$8,$9,0*
20,1,$1+$1,$8,$9,$2,$3,0*%
G04 Aperture macros list end*
%TA.AperFunction,SMDPad,CuDef*%
%ADD10RoundRect,0.500000X-0.875000X-0.500000X0.875000X-0.500000X0.875000X0.500000X-0.875000X0.500000X0*%
%TD*%
%TA.AperFunction,ComponentPad*%
%ADD11R,1.600000X1.600000*%
%TD*%
%TA.AperFunction,ComponentPad*%
%ADD12C,1.600000*%
%TD*%
%TA.AperFunction,ComponentPad*%
%ADD13O,1.600000X1.600000*%
%TD*%
%TA.AperFunction,ComponentPad*%
%ADD14C,2.500000*%
%TD*%
%TA.AperFunction,ComponentPad*%
%ADD15R,1.700000X1.700000*%
%TD*%
%TA.AperFunction,ComponentPad*%
%ADD16O,1.700000X1.700000*%
%TD*%
%TA.AperFunction,ViaPad*%
%ADD17C,0.600000*%
%TD*%
%TA.AperFunction,Conductor*%
%ADD18C,0.200000*%
%TD*%
%ADD19R,1.600000X1.600000*%
%ADD20C,1.600000*%
%ADD21O,1.600000X1.600000*%
%ADD22C,1.750000*%
%ADD23C,4.000000*%
%ADD24C,2.500000*%
%ADD25R,1.700000X1.700000*%
%ADD26O,1.700000X1.700000*%
%ADD27RoundRect,0.500000X-0.875000X-0.500000X0.875000X-0.500000X0.875000X0.500000X-0.875000X0.500000X0*%
%ADD28C,0.150000*%
%ADD29C,0.100000*%
%ADD30C,0.120000*%
%TA.AperFunction,Profile*%
%ADD31C,0.050000*%
%TD*%
G04 APERTURE END LIST*
D10*
%TO.P,U2,1,PA02_A0_D0*%
%TO.N,unconnected-(U2-PA02_A0_D0-Pad1)*%
X134287500Y-49030000D03*
D11*
%TO.N,unconnected-(U2-PA02_A0_D0-Pad1)_1*%
X134732500Y-49030000D03*
D10*
%TO.P,U2,2,PA4_A1_D1*%
%TO.N,unconnected-(U2-PA4_A1_D1-Pad2)_1*%
X134287500Y-51570000D03*
D12*
%TO.N,unconnected-(U2-PA4_A1_D1-Pad2)*%
X134732500Y-51570000D03*
D10*
%TO.P,U2,3,PA10_A2_D2*%
%TO.N,unconnected-(U2-PA10_A2_D2-Pad3)*%
X134287500Y-54110000D03*
D12*
%TO.N,unconnected-(U2-PA10_A2_D2-Pad3)_1*%
X134732500Y-54110000D03*
D10*
%TO.P,U2,4,PA11_A3_D3*%
%TO.N,unconnected-(U2-PA11_A3_D3-Pad4)_1*%
X134287500Y-56650000D03*
D12*
%TO.N,unconnected-(U2-PA11_A3_D3-Pad4)*%
X134732500Y-56650000D03*
D10*
%TO.P,U2,5,PA8_A4_D4_SDA*%
%TO.N,Net-(J1-SDA)*%
X134287500Y-59190000D03*
D12*
X134732500Y-59190000D03*
D10*
%TO.P,U2,6,PA9_A5_D5_SCL*%
%TO.N,Net-(J1-SCL)*%
X134287500Y-61730000D03*
D12*
X134732500Y-61730000D03*
D10*
%TO.P,U2,7,PB08_A6_D6_TX*%
%TO.N,Net-(D4-K)*%
X134287500Y-64270000D03*
D12*
X134732500Y-64270000D03*
%TO.P,U2,8,PB09_A7_D7_RX*%
%TO.N,Net-(U2-PB09_A7_D7_RX)*%
X149972500Y-64270000D03*
D10*
X150452500Y-64270000D03*
D12*
%TO.P,U2,9,PA7_A8_D8_SCK*%
%TO.N,Net-(U2-PA7_A8_D8_SCK)*%
X149972500Y-61730000D03*
D10*
X150452500Y-61730000D03*
D12*
%TO.P,U2,10,PA5_A9_D9_MISO*%
%TO.N,Net-(U2-PA5_A9_D9_MISO)*%
X149972500Y-59190000D03*
D10*
X150452500Y-59190000D03*
D12*
%TO.P,U2,11,PA6_A10_D10_MOSI*%
%TO.N,Net-(U2-PA6_A10_D10_MOSI)*%
X149972500Y-56650000D03*
D10*
X150452500Y-56650000D03*
D12*
%TO.P,U2,12,3V3*%
%TO.N,Net-(J1-VCC)*%
X149972500Y-54110000D03*
D10*
X150452500Y-54110000D03*
D12*
%TO.P,U2,13,GND*%
%TO.N,GND*%
X149972500Y-51570000D03*
D10*
X150452500Y-51570000D03*
D12*
%TO.P,U2,14,5V*%
%TO.N,unconnected-(U2-5V-Pad14)_1*%
X149972500Y-49030000D03*
D10*
%TO.N,unconnected-(U2-5V-Pad14)*%
X150452500Y-49030000D03*
%TD*%
D11*
%TO.P,D1,1,K*%
%TO.N,Net-(D1-K)*%
X145850000Y-81900000D03*
D13*
%TO.P,D1,2,A*%
%TO.N,Net-(D1-A)*%
X145850000Y-74280000D03*
%TD*%
D11*
%TO.P,D2,1,K*%
%TO.N,Net-(D2-K)*%
X149400000Y-81900000D03*
D13*
%TO.P,D2,2,A*%
%TO.N,Net-(D1-K)*%
X149400000Y-74280000D03*
%TD*%
D14*
%TO.P,S2,1,1*%
%TO.N,Net-(U2-PA5_A9_D9_MISO)*%
X179173446Y-66360000D03*
%TO.P,S2,2,2*%
%TO.N,Net-(D1-K)*%
X185523446Y-63820000D03*
%TD*%
D11*
%TO.P,D4,1,K*%
%TO.N,Net-(D4-K)*%
X142480000Y-81910000D03*
D13*
%TO.P,D4,2,A*%
%TO.N,Net-(D3-K)*%
X142480000Y-74290000D03*
%TD*%
D15*
%TO.P,J1,1,GND*%
%TO.N,GND*%
X156090000Y-57210000D03*
D16*
%TO.P,J1,2,VCC*%
%TO.N,Net-(J1-VCC)*%
X156090000Y-54670000D03*
%TO.P,J1,3,SCL*%
%TO.N,Net-(J1-SCL)*%
X156090000Y-52130000D03*
%TO.P,J1,4,SDA*%
%TO.N,Net-(J1-SDA)*%
X156090000Y-49590000D03*
%TD*%
D11*
%TO.P,D3,1,K*%
%TO.N,Net-(D3-K)*%
X138890000Y-81900000D03*
D13*
%TO.P,D3,2,A*%
%TO.N,Net-(D2-K)*%
X138890000Y-74280000D03*
%TD*%
D14*
%TO.P,S4,1,1*%
%TO.N,Net-(U2-PB09_A7_D7_RX)*%
X160143446Y-85420000D03*
%TO.P,S4,2,2*%
%TO.N,Net-(D3-K)*%
X166493446Y-82880000D03*
%TD*%
%TO.P,S3,1,1*%
%TO.N,Net-(U2-PA7_A8_D8_SCK)*%
X179183446Y-85420000D03*
%TO.P,S3,2,2*%
%TO.N,Net-(D2-K)*%
X185533446Y-82880000D03*
%TD*%
%TO.P,S1,1,1*%
%TO.N,Net-(U2-PA6_A10_D10_MOSI)*%
X160153446Y-66360000D03*
%TO.P,S1,2,2*%
%TO.N,Net-(D1-A)*%
X166503446Y-63820000D03*
%TD*%
D17*
%TO.N,GND*%
X157800000Y-51820000D03*
%TO.N,Net-(D3-K)*%
X167293446Y-92360000D03*
%TO.N,Net-(J1-VCC)*%
X153210000Y-53820000D03*
%TO.N,Net-(U2-PA7_A8_D8_SCK)*%
X153180000Y-61740000D03*
%TO.N,Net-(U2-PB09_A7_D7_RX)*%
X152480000Y-63760000D03*
%TO.N,Net-(U2-PA6_A10_D10_MOSI)*%
X152520000Y-56500000D03*
%TD*%
D18*
%TO.N,Net-(J1-SCL)*%
X154759000Y-62478558D02*
X154759000Y-52130000D01*
X151666558Y-65571000D02*
X154759000Y-62478558D01*
X138573500Y-65571000D02*
X151666558Y-65571000D01*
X154759000Y-52130000D02*
X156090000Y-52130000D01*
X134732500Y-61730000D02*
X138573500Y-65571000D01*
%TO.N,GND*%
X155540000Y-56660000D02*
X156090000Y-57210000D01*
X155540000Y-56280000D02*
X155540000Y-56660000D01*
X157790000Y-55240000D02*
X157010000Y-56020000D01*
X157790000Y-51830000D02*
X157790000Y-55240000D01*
X157010000Y-56020000D02*
X155800000Y-56020000D01*
X155800000Y-56020000D02*
X155540000Y-56280000D01*
X157800000Y-51820000D02*
X157790000Y-51830000D01*
%TO.N,Net-(D1-A)*%
X156310000Y-63820000D02*
X166503446Y-63820000D01*
X145850000Y-74280000D02*
X156310000Y-63820000D01*
%TO.N,Net-(J1-SDA)*%
X156090000Y-48470000D02*
X156090000Y-49278000D01*
X155349000Y-47729000D02*
X156090000Y-48470000D01*
X146193500Y-47729000D02*
X155349000Y-47729000D01*
X134732500Y-59190000D02*
X146193500Y-47729000D01*
%TO.N,Net-(U2-PA5_A9_D9_MISO)*%
X151103870Y-59190000D02*
X149972500Y-59190000D01*
X154170000Y-56123870D02*
X151103870Y-59190000D01*
X154170000Y-50942240D02*
X154170000Y-56123870D01*
X154252240Y-50860000D02*
X154170000Y-50942240D01*
X158380000Y-50860000D02*
X154252240Y-50860000D01*
X186961000Y-63064108D02*
X186961000Y-61947554D01*
X187074446Y-64462446D02*
X187074446Y-63177554D01*
X185176892Y-66360000D02*
X187074446Y-64462446D01*
X159561000Y-49679000D02*
X158380000Y-50860000D01*
X179173446Y-66360000D02*
X185176892Y-66360000D01*
X187074446Y-63177554D02*
X186961000Y-63064108D01*
X186961000Y-61947554D02*
X174692446Y-49679000D01*
X174692446Y-49679000D02*
X159561000Y-49679000D01*
%TO.N,Net-(D1-K)*%
X167520000Y-74280000D02*
X177980000Y-63820000D01*
X149400000Y-74280000D02*
X167520000Y-74280000D01*
X177980000Y-63820000D02*
X185523446Y-63820000D01*
%TO.N,Net-(J1-SCL)*%
X155910000Y-51950000D02*
X156090000Y-52130000D01*
%TO.N,Net-(D1-K)*%
X145850000Y-81900000D02*
X146951000Y-83001000D01*
X150501000Y-75381000D02*
X149400000Y-74280000D01*
X150501000Y-83001000D02*
X150501000Y-75381000D01*
X146951000Y-83001000D02*
X150501000Y-83001000D01*
%TO.N,Net-(D2-K)*%
X139981000Y-73189000D02*
X142936050Y-73189000D01*
X149400000Y-79652950D02*
X149400000Y-81900000D01*
X142936050Y-73189000D02*
X149400000Y-79652950D01*
X138890000Y-74280000D02*
X139981000Y-73189000D01*
%TO.N,Net-(D3-K)*%
X143581000Y-75391000D02*
X142480000Y-74290000D01*
X143581000Y-83011000D02*
X143581000Y-75391000D01*
X140001000Y-83011000D02*
X143581000Y-83011000D01*
X138890000Y-81900000D02*
X140001000Y-83011000D01*
%TO.N,Net-(D4-K)*%
X134732500Y-71782500D02*
X142480000Y-79530000D01*
X142480000Y-79530000D02*
X142480000Y-81910000D01*
X134732500Y-64270000D02*
X134732500Y-71782500D01*
%TO.N,Net-(J1-VCC)*%
X152920000Y-54110000D02*
X153210000Y-53820000D01*
X149972500Y-54110000D02*
X152920000Y-54110000D01*
%TO.N,Net-(U2-PA7_A8_D8_SCK)*%
X153170000Y-61730000D02*
X153180000Y-61740000D01*
X149972500Y-61730000D02*
X153170000Y-61730000D01*
%TO.N,Net-(U2-PB09_A7_D7_RX)*%
X150452500Y-64270000D02*
X151970000Y-64270000D01*
X151970000Y-64270000D02*
X152480000Y-63760000D01*
%TO.N,Net-(U2-PA6_A10_D10_MOSI)*%
X152370000Y-56650000D02*
X152520000Y-56500000D01*
X149972500Y-56650000D02*
X152370000Y-56650000D01*
%TO.N,Net-(D3-K)*%
X143581000Y-83011000D02*
X151700000Y-91130000D01*
X151700000Y-91130000D02*
X166120000Y-91130000D01*
X166120000Y-91186554D02*
X167293446Y-92360000D01*
X166120000Y-91130000D02*
X166120000Y-91186554D01*
%TO.N,Net-(D2-K)*%
X149400000Y-81900000D02*
X148299000Y-80799000D01*
X171870000Y-90560000D02*
X171870000Y-90540000D01*
X148299000Y-80799000D02*
X144749000Y-80799000D01*
X144749000Y-83001000D02*
X152308000Y-90560000D01*
X144749000Y-80799000D02*
X144749000Y-83001000D01*
X179530000Y-82880000D02*
X185533446Y-82880000D01*
X152308000Y-90560000D02*
X171870000Y-90560000D01*
X171870000Y-90540000D02*
X179530000Y-82880000D01*
%TD*%
D11*
%TO.P,U2,1,PA02_A0_D0*%
%TO.N,unconnected-(U2-PA02_A0_D0-Pad1)_1*%
X134732500Y-49030000D03*
D12*
%TO.P,U2,2,PA4_A1_D1*%
%TO.N,unconnected-(U2-PA4_A1_D1-Pad2)*%
X134732500Y-51570000D03*
%TO.P,U2,3,PA10_A2_D2*%
%TO.N,unconnected-(U2-PA10_A2_D2-Pad3)_1*%
X134732500Y-54110000D03*
%TO.P,U2,4,PA11_A3_D3*%
%TO.N,unconnected-(U2-PA11_A3_D3-Pad4)*%
X134732500Y-56650000D03*
%TO.P,U2,5,PA8_A4_D4_SDA*%
%TO.N,Net-(J1-SDA)*%
X134732500Y-59190000D03*
%TO.P,U2,6,PA9_A5_D5_SCL*%
%TO.N,Net-(J1-SCL)*%
X134732500Y-61730000D03*
%TO.P,U2,7,PB08_A6_D6_TX*%
%TO.N,Net-(D4-K)*%
X134732500Y-64270000D03*
%TO.P,U2,8,PB09_A7_D7_RX*%
%TO.N,Net-(U2-PB09_A7_D7_RX)*%
X149972500Y-64270000D03*
%TO.P,U2,9,PA7_A8_D8_SCK*%
%TO.N,Net-(U2-PA7_A8_D8_SCK)*%
X149972500Y-61730000D03*
%TO.P,U2,10,PA5_A9_D9_MISO*%
%TO.N,Net-(U2-PA5_A9_D9_MISO)*%
X149972500Y-59190000D03*
%TO.P,U2,11,PA6_A10_D10_MOSI*%
%TO.N,Net-(U2-PA6_A10_D10_MOSI)*%
X149972500Y-56650000D03*
%TO.P,U2,12,3V3*%
%TO.N,Net-(J1-VCC)*%
X149972500Y-54110000D03*
%TO.P,U2,13,GND*%
%TO.N,GND*%
X149972500Y-51570000D03*
%TO.P,U2,14,5V*%
%TO.N,unconnected-(U2-5V-Pad14)_1*%
X149972500Y-49030000D03*
%TD*%
D11*
%TO.P,D1,1,K*%
%TO.N,Net-(D1-K)*%
X145850000Y-81900000D03*
D13*
%TO.P,D1,2,A*%
%TO.N,Net-(D1-A)*%
X145850000Y-74280000D03*
%TD*%
D11*
%TO.P,D2,1,K*%
%TO.N,Net-(D2-K)*%
X149400000Y-81900000D03*
D13*
%TO.P,D2,2,A*%
%TO.N,Net-(D1-K)*%
X149400000Y-74280000D03*
%TD*%
D14*
%TO.P,S2,1,1*%
%TO.N,Net-(U2-PA5_A9_D9_MISO)*%
X179173446Y-66360000D03*
%TO.P,S2,2,2*%
%TO.N,Net-(D1-K)*%
X185523446Y-63820000D03*
%TD*%
D11*
%TO.P,D4,1,K*%
%TO.N,Net-(D4-K)*%
X142480000Y-81910000D03*
D13*
%TO.P,D4,2,A*%
%TO.N,Net-(D3-K)*%
X142480000Y-74290000D03*
%TD*%
D15*
%TO.P,J1,1,GND*%
%TO.N,GND*%
X156090000Y-57210000D03*
D16*
%TO.P,J1,2,VCC*%
%TO.N,Net-(J1-VCC)*%
X156090000Y-54670000D03*
%TO.P,J1,3,SCL*%
%TO.N,Net-(J1-SCL)*%
X156090000Y-52130000D03*
%TO.P,J1,4,SDA*%
%TO.N,Net-(J1-SDA)*%
X156090000Y-49590000D03*
%TD*%
D11*
%TO.P,D3,1,K*%
%TO.N,Net-(D3-K)*%
X138890000Y-81900000D03*
D13*
%TO.P,D3,2,A*%
%TO.N,Net-(D2-K)*%
X138890000Y-74280000D03*
%TD*%
D14*
%TO.P,S4,1,1*%
%TO.N,Net-(U2-PB09_A7_D7_RX)*%
X160143446Y-85420000D03*
%TO.P,S4,2,2*%
%TO.N,Net-(D3-K)*%
X166493446Y-82880000D03*
%TD*%
%TO.P,S3,1,1*%
%TO.N,Net-(U2-PA7_A8_D8_SCK)*%
X179183446Y-85420000D03*
%TO.P,S3,2,2*%
%TO.N,Net-(D2-K)*%
X185533446Y-82880000D03*
%TD*%
%TO.P,S1,1,1*%
%TO.N,Net-(U2-PA6_A10_D10_MOSI)*%
X160153446Y-66360000D03*
%TO.P,S1,2,2*%
%TO.N,Net-(D1-A)*%
X166503446Y-63820000D03*
%TD*%
D17*
%TO.N,GND*%
X157800000Y-51820000D03*
%TO.N,Net-(D3-K)*%
X167293446Y-92360000D03*
%TO.N,Net-(J1-VCC)*%
X153210000Y-53820000D03*
%TO.N,Net-(U2-PA7_A8_D8_SCK)*%
X153180000Y-61740000D03*
%TO.N,Net-(U2-PB09_A7_D7_RX)*%
X152480000Y-63760000D03*
%TO.N,Net-(U2-PA6_A10_D10_MOSI)*%
X152520000Y-56500000D03*
%TD*%
D18*
%TO.N,GND*%
X150722500Y-50820000D02*
X149972500Y-51570000D01*
X156800000Y-50820000D02*
X150722500Y-50820000D01*
X157800000Y-51820000D02*
X156800000Y-50820000D01*
%TO.N,Net-(U2-PA6_A10_D10_MOSI)*%
X155649972Y-65049972D02*
X155869986Y-65269986D01*
X152881000Y-65049972D02*
X155649972Y-65049972D01*
X152881000Y-64208943D02*
X152881000Y-65049972D01*
X153081000Y-63511057D02*
X153081000Y-64008943D01*
X153081000Y-64008943D02*
X152881000Y-64208943D01*
X152520000Y-63159000D02*
X152728943Y-63159000D01*
X152520000Y-56500000D02*
X152520000Y-63159000D01*
X152728943Y-63159000D02*
X153081000Y-63511057D01*
X156090000Y-66360000D02*
X160153446Y-66360000D01*
X155869986Y-65269986D02*
X155869986Y-66130042D01*
X155900000Y-66170000D02*
X156090000Y-66360000D01*
%TO.N,Net-(J1-VCC)*%
X155910000Y-53370000D02*
X155910000Y-54490000D01*
X155910000Y-54490000D02*
X156090000Y-54670000D01*
X153660000Y-53370000D02*
X155910000Y-53370000D01*
X153210000Y-53820000D02*
X153660000Y-53370000D01*
%TO.N,Net-(U2-PA7_A8_D8_SCK)*%
X179183446Y-80233446D02*
X179183446Y-85420000D01*
X166780000Y-70110000D02*
X168040000Y-71370000D01*
X170320000Y-71370000D02*
X179183446Y-80233446D01*
X161358262Y-62408262D02*
X166780000Y-67830000D01*
X166780000Y-67830000D02*
X166780000Y-70110000D01*
X161358262Y-61853446D02*
X161358262Y-62408262D01*
X161244816Y-61740000D02*
X161358262Y-61853446D01*
X168040000Y-71370000D02*
X170320000Y-71370000D01*
X153180000Y-61740000D02*
X161244816Y-61740000D01*
%TO.N,Net-(D3-K)*%
X166493446Y-90960000D02*
X166493446Y-82880000D01*
X167293446Y-91760000D02*
X166493446Y-90960000D01*
X167293446Y-92360000D02*
X167293446Y-91760000D01*
%TO.N,Net-(U2-PB09_A7_D7_RX)*%
X152480000Y-63760000D02*
X152480000Y-76640000D01*
X152480000Y-76640000D02*
X160030000Y-84190000D01*
%TD*%
D19*
%TO.C,U2*%
X134732500Y-49030000D03*
D20*
X134732500Y-51570000D03*
X134732500Y-54110000D03*
X134732500Y-56650000D03*
X134732500Y-59190000D03*
X134732500Y-61730000D03*
X134732500Y-64270000D03*
X149972500Y-64270000D03*
X149972500Y-61730000D03*
X149972500Y-59190000D03*
X149972500Y-56650000D03*
X149972500Y-54110000D03*
X149972500Y-51570000D03*
X149972500Y-49030000D03*
%TD*%
D19*
%TO.C,D1*%
X145850000Y-81900000D03*
D21*
X145850000Y-74280000D03*
%TD*%
D19*
%TO.C,D2*%
X149400000Y-81900000D03*
D21*
X149400000Y-74280000D03*
%TD*%
D22*
%TO.C,S2*%
X177903446Y-68900000D03*
D23*
X182983446Y-68900000D03*
D22*
X188063446Y-68900000D03*
D24*
X179173446Y-66360000D03*
X185523446Y-63820000D03*
%TD*%
D19*
%TO.C,D4*%
X142480000Y-81910000D03*
D21*
X142480000Y-74290000D03*
%TD*%
D25*
%TO.C,J1*%
X156090000Y-57210000D03*
D26*
X156090000Y-54670000D03*
X156090000Y-52130000D03*
X156090000Y-49590000D03*
%TD*%
D19*
%TO.C,D3*%
X138890000Y-81900000D03*
D21*
X138890000Y-74280000D03*
%TD*%
D22*
%TO.C,S4*%
X158873446Y-87960000D03*
D23*
X163953446Y-87960000D03*
D22*
X169033446Y-87960000D03*
D24*
X160143446Y-85420000D03*
X166493446Y-82880000D03*
%TD*%
D22*
%TO.C,S3*%
X177913446Y-87960000D03*
D23*
X182993446Y-87960000D03*
D22*
X188073446Y-87960000D03*
D24*
X179183446Y-85420000D03*
X185533446Y-82880000D03*
%TD*%
D22*
%TO.C,S1*%
X158883446Y-68900000D03*
D23*
X163963446Y-68900000D03*
D22*
X169043446Y-68900000D03*
D24*
X160153446Y-66360000D03*
X166503446Y-63820000D03*
%TD*%
D27*
%TO.C,U2*%
X134287500Y-49030000D03*
D19*
X134732500Y-49030000D03*
D27*
X134287500Y-51570000D03*
D20*
X134732500Y-51570000D03*
D27*
X134287500Y-54110000D03*
D20*
X134732500Y-54110000D03*
D27*
X134287500Y-56650000D03*
D20*
X134732500Y-56650000D03*
D27*
X134287500Y-59190000D03*
D20*
X134732500Y-59190000D03*
D27*
X134287500Y-61730000D03*
D20*
X134732500Y-61730000D03*
D27*
X134287500Y-64270000D03*
D20*
X134732500Y-64270000D03*
X149972500Y-64270000D03*
D27*
X150452500Y-64270000D03*
D20*
X149972500Y-61730000D03*
D27*
X150452500Y-61730000D03*
D20*
X149972500Y-59190000D03*
D27*
X150452500Y-59190000D03*
D20*
X149972500Y-56650000D03*
D27*
X150452500Y-56650000D03*
D20*
X149972500Y-54110000D03*
D27*
X150452500Y-54110000D03*
D20*
X149972500Y-51570000D03*
D27*
X150452500Y-51570000D03*
D20*
X149972500Y-49030000D03*
D27*
X150452500Y-49030000D03*
%TD*%
D19*
%TO.C,D1*%
X145850000Y-81900000D03*
D21*
X145850000Y-74280000D03*
%TD*%
D19*
%TO.C,D2*%
X149400000Y-81900000D03*
D21*
X149400000Y-74280000D03*
%TD*%
D22*
%TO.C,S2*%
X177903446Y-68900000D03*
D23*
X182983446Y-68900000D03*
D22*
X188063446Y-68900000D03*
D24*
X179173446Y-66360000D03*
X185523446Y-63820000D03*
%TD*%
D19*
%TO.C,D4*%
X142480000Y-81910000D03*
D21*
X142480000Y-74290000D03*
%TD*%
D25*
%TO.C,J1*%
X156090000Y-57210000D03*
D26*
X156090000Y-54670000D03*
X156090000Y-52130000D03*
X156090000Y-49590000D03*
%TD*%
D19*
%TO.C,D3*%
X138890000Y-81900000D03*
D21*
X138890000Y-74280000D03*
%TD*%
D22*
%TO.C,S4*%
X158873446Y-87960000D03*
D23*
X163953446Y-87960000D03*
D22*
X169033446Y-87960000D03*
D24*
X160143446Y-85420000D03*
X166493446Y-82880000D03*
%TD*%
D22*
%TO.C,S3*%
X177913446Y-87960000D03*
D23*
X182993446Y-87960000D03*
D22*
X188073446Y-87960000D03*
D24*
X179183446Y-85420000D03*
X185533446Y-82880000D03*
%TD*%
D22*
%TO.C,S1*%
X158883446Y-68900000D03*
D23*
X163963446Y-68900000D03*
D22*
X169043446Y-68900000D03*
D24*
X160153446Y-66360000D03*
X166503446Y-63820000D03*
%TD*%
D27*
%TO.C,U2*%
X134287500Y-49030000D03*
X134287500Y-51570000D03*
X134287500Y-54110000D03*
X134287500Y-56650000D03*
X134287500Y-59190000D03*
X134287500Y-61730000D03*
X134287500Y-64270000D03*
X150452500Y-64270000D03*
X150452500Y-61730000D03*
X150452500Y-59190000D03*
X150452500Y-56650000D03*
X150452500Y-54110000D03*
X150452500Y-51570000D03*
X150452500Y-49030000D03*
%TD*%
D28*
X181951541Y-61567200D02*
X182094398Y-61614819D01*
X182094398Y-61614819D02*
X182332493Y-61614819D01*
X182332493Y-61614819D02*
X182427731Y-61567200D01*
X182427731Y-61567200D02*
X182475350Y-61519580D01*
X182475350Y-61519580D02*
X182522969Y-61424342D01*
X182522969Y-61424342D02*
X182522969Y-61329104D01*
X182522969Y-61329104D02*
X182475350Y-61233866D01*
X182475350Y-61233866D02*
X182427731Y-61186247D01*
X182427731Y-61186247D02*
X182332493Y-61138628D01*
X182332493Y-61138628D02*
X182142017Y-61091009D01*
X182142017Y-61091009D02*
X182046779Y-61043390D01*
X182046779Y-61043390D02*
X181999160Y-60995771D01*
X181999160Y-60995771D02*
X181951541Y-60900533D01*
X181951541Y-60900533D02*
X181951541Y-60805295D01*
X181951541Y-60805295D02*
X181999160Y-60710057D01*
X181999160Y-60710057D02*
X182046779Y-60662438D01*
X182046779Y-60662438D02*
X182142017Y-60614819D01*
X182142017Y-60614819D02*
X182380112Y-60614819D01*
X182380112Y-60614819D02*
X182522969Y-60662438D01*
X182903922Y-60710057D02*
X182951541Y-60662438D01*
X182951541Y-60662438D02*
X183046779Y-60614819D01*
X183046779Y-60614819D02*
X183284874Y-60614819D01*
X183284874Y-60614819D02*
X183380112Y-60662438D01*
X183380112Y-60662438D02*
X183427731Y-60710057D01*
X183427731Y-60710057D02*
X183475350Y-60805295D01*
X183475350Y-60805295D02*
X183475350Y-60900533D01*
X183475350Y-60900533D02*
X183427731Y-61043390D01*
X183427731Y-61043390D02*
X182856303Y-61614819D01*
X182856303Y-61614819D02*
X183475350Y-61614819D01*
X163191541Y-80367200D02*
X163334398Y-80414819D01*
X163334398Y-80414819D02*
X163572493Y-80414819D01*
X163572493Y-80414819D02*
X163667731Y-80367200D01*
X163667731Y-80367200D02*
X163715350Y-80319580D01*
X163715350Y-80319580D02*
X163762969Y-80224342D01*
X163762969Y-80224342D02*
X163762969Y-80129104D01*
X163762969Y-80129104D02*
X163715350Y-80033866D01*
X163715350Y-80033866D02*
X163667731Y-79986247D01*
X163667731Y-79986247D02*
X163572493Y-79938628D01*
X163572493Y-79938628D02*
X163382017Y-79891009D01*
X163382017Y-79891009D02*
X163286779Y-79843390D01*
X163286779Y-79843390D02*
X163239160Y-79795771D01*
X163239160Y-79795771D02*
X163191541Y-79700533D01*
X163191541Y-79700533D02*
X163191541Y-79605295D01*
X163191541Y-79605295D02*
X163239160Y-79510057D01*
X163239160Y-79510057D02*
X163286779Y-79462438D01*
X163286779Y-79462438D02*
X163382017Y-79414819D01*
X163382017Y-79414819D02*
X163620112Y-79414819D01*
X163620112Y-79414819D02*
X163762969Y-79462438D01*
X164620112Y-79748152D02*
X164620112Y-80414819D01*
X164382017Y-79367200D02*
X164143922Y-80081485D01*
X164143922Y-80081485D02*
X164762969Y-80081485D01*
X181741541Y-80457200D02*
X181884398Y-80504819D01*
X181884398Y-80504819D02*
X182122493Y-80504819D01*
X182122493Y-80504819D02*
X182217731Y-80457200D01*
X182217731Y-80457200D02*
X182265350Y-80409580D01*
X182265350Y-80409580D02*
X182312969Y-80314342D01*
X182312969Y-80314342D02*
X182312969Y-80219104D01*
X182312969Y-80219104D02*
X182265350Y-80123866D01*
X182265350Y-80123866D02*
X182217731Y-80076247D01*
X182217731Y-80076247D02*
X182122493Y-80028628D01*
X182122493Y-80028628D02*
X181932017Y-79981009D01*
X181932017Y-79981009D02*
X181836779Y-79933390D01*
X181836779Y-79933390D02*
X181789160Y-79885771D01*
X181789160Y-79885771D02*
X181741541Y-79790533D01*
X181741541Y-79790533D02*
X181741541Y-79695295D01*
X181741541Y-79695295D02*
X181789160Y-79600057D01*
X181789160Y-79600057D02*
X181836779Y-79552438D01*
X181836779Y-79552438D02*
X181932017Y-79504819D01*
X181932017Y-79504819D02*
X182170112Y-79504819D01*
X182170112Y-79504819D02*
X182312969Y-79552438D01*
X182646303Y-79504819D02*
X183265350Y-79504819D01*
X183265350Y-79504819D02*
X182932017Y-79885771D01*
X182932017Y-79885771D02*
X183074874Y-79885771D01*
X183074874Y-79885771D02*
X183170112Y-79933390D01*
X183170112Y-79933390D02*
X183217731Y-79981009D01*
X183217731Y-79981009D02*
X183265350Y-80076247D01*
X183265350Y-80076247D02*
X183265350Y-80314342D01*
X183265350Y-80314342D02*
X183217731Y-80409580D01*
X183217731Y-80409580D02*
X183170112Y-80457200D01*
X183170112Y-80457200D02*
X183074874Y-80504819D01*
X183074874Y-80504819D02*
X182789160Y-80504819D01*
X182789160Y-80504819D02*
X182693922Y-80457200D01*
X182693922Y-80457200D02*
X182646303Y-80409580D01*
X163291541Y-60907200D02*
X163434398Y-60954819D01*
X163434398Y-60954819D02*
X163672493Y-60954819D01*
X163672493Y-60954819D02*
X163767731Y-60907200D01*
X163767731Y-60907200D02*
X163815350Y-60859580D01*
X163815350Y-60859580D02*
X163862969Y-60764342D01*
X163862969Y-60764342D02*
X163862969Y-60669104D01*
X163862969Y-60669104D02*
X163815350Y-60573866D01*
X163815350Y-60573866D02*
X163767731Y-60526247D01*
X163767731Y-60526247D02*
X163672493Y-60478628D01*
X163672493Y-60478628D02*
X163482017Y-60431009D01*
X163482017Y-60431009D02*
X163386779Y-60383390D01*
X163386779Y-60383390D02*
X163339160Y-60335771D01*
X163339160Y-60335771D02*
X163291541Y-60240533D01*
X163291541Y-60240533D02*
X163291541Y-60145295D01*
X163291541Y-60145295D02*
X163339160Y-60050057D01*
X163339160Y-60050057D02*
X163386779Y-60002438D01*
X163386779Y-60002438D02*
X163482017Y-59954819D01*
X163482017Y-59954819D02*
X163720112Y-59954819D01*
X163720112Y-59954819D02*
X163862969Y-60002438D01*
X164815350Y-60954819D02*
X164243922Y-60954819D01*
X164529636Y-60954819D02*
X164529636Y-59954819D01*
X164529636Y-59954819D02*
X164434398Y-60097676D01*
X164434398Y-60097676D02*
X164339160Y-60192914D01*
X164339160Y-60192914D02*
X164243922Y-60240533D01*
D29*
%TO.C,D1*%
X145300000Y-78440000D02*
X146400000Y-78440000D01*
X145450000Y-77840000D02*
X146250000Y-77840000D01*
X145850000Y-77840000D02*
X145850000Y-77340000D01*
X145850000Y-78440000D02*
X145450000Y-77840000D01*
X145850000Y-78840000D02*
X145850000Y-78440000D01*
X146250000Y-77840000D02*
X145850000Y-78440000D01*
%TO.C,D2*%
X148850000Y-78440000D02*
X149950000Y-78440000D01*
X149000000Y-77840000D02*
X149800000Y-77840000D01*
X149400000Y-77840000D02*
X149400000Y-77340000D01*
X149400000Y-78440000D02*
X149000000Y-77840000D01*
X149400000Y-78840000D02*
X149400000Y-78440000D01*
X149800000Y-77840000D02*
X149400000Y-78440000D01*
D30*
%TO.C,S2*%
X175883446Y-61800000D02*
X175883446Y-76000000D01*
X175883446Y-76000000D02*
X190083446Y-76000000D01*
X190083446Y-61800000D02*
X175883446Y-61800000D01*
X190083446Y-76000000D02*
X190083446Y-61800000D01*
D29*
%TO.C,D4*%
X141930000Y-78450000D02*
X143030000Y-78450000D01*
X142080000Y-77850000D02*
X142880000Y-77850000D01*
X142480000Y-77850000D02*
X142480000Y-77350000D01*
X142480000Y-78450000D02*
X142080000Y-77850000D01*
X142480000Y-78850000D02*
X142480000Y-78450000D01*
X142880000Y-77850000D02*
X142480000Y-78450000D01*
%TO.C,D3*%
X138340000Y-78440000D02*
X139440000Y-78440000D01*
X138490000Y-77840000D02*
X139290000Y-77840000D01*
X138890000Y-77840000D02*
X138890000Y-77340000D01*
X138890000Y-78440000D02*
X138490000Y-77840000D01*
X138890000Y-78840000D02*
X138890000Y-78440000D01*
X139290000Y-77840000D02*
X138890000Y-78440000D01*
D30*
%TO.C,S4*%
X156853446Y-80860000D02*
X156853446Y-95060000D01*
X156853446Y-95060000D02*
X171053446Y-95060000D01*
X171053446Y-80860000D02*
X156853446Y-80860000D01*
X171053446Y-95060000D02*
X171053446Y-80860000D01*
%TO.C,S3*%
X175893446Y-80860000D02*
X175893446Y-95060000D01*
X175893446Y-95060000D02*
X190093446Y-95060000D01*
X190093446Y-80860000D02*
X175893446Y-80860000D01*
X190093446Y-95060000D02*
X190093446Y-80860000D01*
%TO.C,S1*%
X156863446Y-61800000D02*
X156863446Y-76000000D01*
X156863446Y-76000000D02*
X171063446Y-76000000D01*
X171063446Y-61800000D02*
X156863446Y-61800000D01*
X171063446Y-76000000D02*
X171063446Y-61800000D01*
%TD*%
D31*
X131710000Y-46060000D02*
X193770000Y-46060000D01*
X193770000Y-97560000D01*
X131710000Y-97560000D01*
X131710000Y-46060000D01*
M02*
